<svg xmlns="http://www.w3.org/2000/svg" width="283" height="265"><g fill="none" fill-rule="evenodd"><path fill="#32DC8C" fill-rule="nonzero" d="M28.379 46.014h10.447L35.768 61.69c-1.902 1.385-4.085 2.449-6.548 3.193-2.463.744-5.105 1.116-7.925 1.116-3.635 0-6.837-.684-9.606-2.05-2.769-1.368-4.91-3.28-6.421-5.737C3.756 55.756 3 52.935 3 49.751c0-4.222.968-7.977 2.905-11.265 1.936-3.287 4.637-5.857 8.103-7.709C17.473 28.926 21.448 28 25.933 28c7.406 0 12.808 2.37 16.206 7.112l-8.613 6.8c-1.121-1.453-2.327-2.483-3.618-3.088-1.291-.606-2.803-.909-4.536-.909-2.072 0-3.881.468-5.427 1.402-1.546.934-2.735 2.24-3.568 3.92-.832 1.678-1.248 3.59-1.248 5.736 0 2.145.696 3.867 2.09 5.165 1.392 1.298 3.312 1.947 5.758 1.947 1.223 0 2.395-.173 3.516-.52l1.886-9.551zm35.297 12.822H50.069l-3.567 6.333h-12.69l22.73-36.338h11.822l8.46 36.338H64.848l-1.172-6.333zm-1.682-8.825l-1.733-9.292-5.249 9.292h6.982zm64.09-21.18l-7.032 36.338h-10.957l3.16-16.56-10.04 13.29h-5.3l-5.504-13.082-3.21 16.352H76.244l7.135-36.338h9.784l7.746 19.311 14.932-19.311h10.243zm13.384 9.24l-.815 4.257h15.084l-1.733 8.825H136.87l-.917 4.776h17.887l-1.835 9.24h-29.66l7.135-36.338h28.998l-1.835 9.24h-17.174zm34.564-9.24h16.104c3.737 0 6.973.623 9.708 1.868 2.735 1.246 4.833 3.029 6.294 5.347 1.46 2.32 2.191 5.053 2.191 8.203 0 4.187-.951 7.864-2.854 11.031-1.902 3.167-4.544 5.607-7.924 7.32-3.38 1.713-7.228 2.57-11.543 2.57h-19.11l7.134-36.34zm12.384 26.786c3.091 0 5.495-.994 7.21-2.984 1.716-1.99 2.574-4.543 2.574-7.658 0-2.11-.637-3.737-1.91-4.88-1.275-1.141-3.118-1.712-5.53-1.712h-4.587l-3.363 17.234h5.606zm37.182-17.546l-.815 4.257h15.084l-1.732 8.825h-15.136l-.917 4.776h17.887l-1.834 9.24h-29.66l7.135-36.338h28.997l-1.835 9.24h-17.174zM283 28.831l-22.22 36.338h-11.822l-7.95-36.338h12.332l4.434 21.18 12.893-21.18H283z"/><path fill="#6866CB" fill-rule="nonzero" d="M9.552 19c-3.026 0-5.21-.934-6.552-2.803l3.895-3.712c.809 1.142 1.729 1.713 2.76 1.713.568 0 1.037-.173 1.406-.519.37-.346.624-.84.761-1.48l1.42-7.163h-6.14L8.03.416h12.15l-2.27 11.42c-.498 2.561-1.427 4.395-2.786 5.503C13.766 18.446 11.908 19 9.552 19zm20.84-3.582h-6.888L21.7 18.585h-6.424L26.781.415h5.984l4.283 18.17h-6.063l-.593-3.167zm-.851-4.413l-.877-4.646-2.657 4.646h3.534zM58.17.415l-11.247 18.17h-5.985L36.915.415h6.242l2.245 10.59L51.928.415h6.243zm7.76 15.003h-6.887l-1.805 3.167h-6.424L62.32.415h5.985l4.282 18.17h-6.062l-.593-3.167zm-.85-4.413l-.877-4.646-2.657 4.646h3.534zM85.014 19c-1.565 0-3.036-.169-4.412-.506-1.375-.338-2.51-.783-3.405-1.337l2.348-4.516c1.943 1.124 3.972 1.687 6.088 1.687.774 0 1.367-.095 1.78-.286.412-.19.619-.45.619-.778 0-.312-.21-.563-.632-.753-.421-.19-1.088-.398-2-.623l-.584-.156a22.351 22.351 0 01-2.408-.791 5.544 5.544 0 01-2.076-1.48c-.594-.666-.89-1.544-.89-2.634 0-1.368.365-2.566 1.096-3.595.73-1.03 1.784-1.826 3.16-2.388C85.074.28 86.7 0 88.574 0c1.341 0 2.592.134 3.753.402 1.16.269 2.163.654 3.005 1.155L93.14 6.022a8.222 8.222 0 00-2.335-1.012 10.201 10.201 0 00-2.618-.338c-.843 0-1.497.121-1.96.364-.465.242-.697.527-.697.856 0 .329.21.588.632.779.36.163.92.339 1.68.527l.396.096c1.17.277 2.154.57 2.954.882.8.312 1.492.796 2.077 1.454.584.657.877 1.523.877 2.595 0 1.35-.37 2.535-1.11 3.556-.74 1.021-1.797 1.813-3.173 2.375-1.375.563-2.992.844-4.85.844zm18.311 0c-1.84 0-3.46-.342-4.862-1.025-1.402-.684-2.485-1.64-3.25-2.868-.766-1.229-1.149-2.64-1.149-4.231 0-2.111.486-3.989 1.458-5.633.972-1.644 2.322-2.929 4.05-3.854C101.3.463 103.265 0 105.466 0c1.737 0 3.277.316 4.618.947 1.341.632 2.339 1.527 2.992 2.687l-4.385 3.452c-.808-1.419-2.012-2.128-3.611-2.128-.946 0-1.789.233-2.529.7-.74.468-1.315 1.12-1.728 1.96-.413.84-.619 1.795-.619 2.868s.34 1.934 1.019 2.583c.68.649 1.578.973 2.696.973 1.53 0 2.872-.7 4.024-2.102l3.586 3.452c-1.05 1.298-2.24 2.224-3.573 2.777-1.333.554-2.876.831-4.63.831zm26.412-12.615c0 1.61-.426 3.015-1.277 4.218-.851 1.203-2.05 2.098-3.598 2.687l3.018 5.295h-6.32l-2.554-4.569h-1.496l-.903 4.569h-6.088L114.13.415h8.1c2.374 0 4.218.524 5.534 1.57 1.315 1.048 1.973 2.514 1.973 4.4zm-6.165.597c0-1.228-.757-1.843-2.27-1.843h-2.038l-.852 4.257h2.503c.842 0 1.496-.212 1.96-.636.465-.424.697-1.016.697-1.778zm8.044-6.567h6.088l-3.611 18.17h-6.088l3.611-18.17zm15.32 0c2.407 0 4.273.528 5.598 1.584 1.324 1.055 1.986 2.535 1.986 4.438 0 1.523-.374 2.864-1.122 4.023-.748 1.16-1.815 2.06-3.199 2.7-1.384.64-2.988.96-4.811.96h-3.121l-.878 4.465h-6.087l3.611-18.17h8.023zm-1.239 8.981c.843 0 1.497-.212 1.961-.636.464-.424.697-1.016.697-1.778 0-1.228-.757-1.843-2.27-1.843h-2.038l-.852 4.257h2.502zm12.972-4.23h-5.288l.954-4.75H171l-.954 4.75h-5.289L162.1 18.584h-6.088l2.657-13.42z"/><path fill="#32DC8C" d="M4 77h257v-3H4z"/><path fill="#6866CB" d="M175 17h108v3H175z"/><g><path fill="#EEF0E9" d="M47.56 244c-5.997 0-13.754-5.307-17.845-8.47-2.701-2.09-5.218-4.337-7.086-6.327-2.827-3.01-4.007-5.147-4.042-7.34-.026-.284-.148-1.192-.246-1.929l-.175-1.312c-.468-3.55-1.212-9.189-1.792-15.848a5.364 5.364 0 01-3.278-1.828c-2.894-1.021-5.473-2.832-7.367-5.195a16.297 16.297 0 01-1.934-3.058C1.675 192.532 0 190.76 0 188.608v-7.873a47.018 47.018 0 017.56-25.607A47.663 47.663 0 0126.5 138.27a28.843 28.843 0 018.164-6.47c4.747-2.523 10.33-3.8 16.593-3.8 11.854 0 19.42 8.88 23.057 13.147.43.505.84.985 1.171 1.351l.181.132c.103.013.24.021.408.021.262 0 .56-.02.883-.06.32-.039.646-.059.968-.059a7.638 7.638 0 016.618 3.758 7.514 7.514 0 01.807 5.868c6.236 8.198 9.65 18.268 9.65 28.577v7.873a4.106 4.106 0 01-3.91 4.091 16.129 16.129 0 01-1.947 3.09 16.564 16.564 0 01-7.78 5.37 4.406 4.406 0 01-.37.421c-.88.888-1.905 1.151-2.61 1.23-.528 6.41-1.196 11.873-1.741 16.053a39.828 39.828 0 00-.274 2.932c-.015 2.61-1.597 5.421-4.973 8.847-2.28 2.313-4.81 4.31-6.116 5.296C62.067 238.362 53.91 244 47.559 244"/><path fill="#ED827B" d="M21 196.234L19.662 199h-2.896c-.55 0-1.384-.457-1.384-1.02v-.315l.136-.013-.16-.06c-2.756-.64-5.067-2.22-6.734-4.361C6.954 191.087 6 188.38 6 185.478c0-5.8 3.926-10.83 9.44-12.113l.073-.06-.13-.013v-.28c0-.563.834-1.012 1.383-1.012h1.92l1.59 2.39c.048.613.093 1.227.133 1.84.102 1.514.18 3.03.215 4.546.03 1.305-.006 2.614-.002 3.919a205.842 205.842 0 00.283 9.786c.029.585.061 1.168.095 1.753m67-10.694c0 2.902-.96 5.608-2.648 7.752-1.685 2.141-4.055 3.722-6.84 4.361l-.478.06-.274.013v.315c0 .563-.005.959-.56.959h-2.926L73 196.394a232.34 232.34 0 00.241-4.588c.066-1.532.116-3.066.137-4.6.018-1.48.028-2.958.036-4.438.005-1.037-.006-2.075.028-3.11.04-1.167.092-2.331.155-3.496.033-.616.069-1.232.106-1.849L75.258 172H77.2c.555 0 .56.51.56 1.073v.28l.281.013.373.06c5.573 1.283 9.586 6.312 9.586 12.113"/><path fill="#EEF0E9" d="M73 179.74c0 3.852-.377 15.201-.886 23.66a262.364 262.364 0 01-.225 3.408 7.376 7.376 0 01-1.446 1.248 6.822 6.822 0 01-2.176.942c-.866.002-1.871.002-2.989.002-.644-.204-1.325-.543-2.053-.936-.217-.116-.439-.237-.666-.36-2.002-1.097-4.492-2.462-7.495-2.462-1.01 0-2.023.178-3.022.532l-.003.009c-.071.19-.164.35-.263.51-.411.613-.966 1.065-1.597 1.437a5.876 5.876 0 01-.732.334c-.448.168-.93.281-1.435.314l-.58.006s-.507-.054-.609-.072a5.889 5.889 0 01-1.133-.34c-.724-.31-1.386-.752-1.922-1.396-.196-.248-.39-.52-.515-.883-.918-.3-1.85-.45-2.78-.45-3.003 0-5.495 1.364-7.499 2.46-.219.12-.432.237-.643.35-.71.382-1.374.714-2.003.922-1.225-.001-2.307-.005-3.203-.008a6.938 6.938 0 01-2.088-.93c-.002 0-.003-.003-.005-.004a7.172 7.172 0 01-.9-.705c-.07-.899-.138-1.881-.205-2.922-.53-8.396-.927-20.673-.927-24.632 0-4.381 1.18-12.568 1.648-15.63a1.327 1.327 0 011.389-1.133c.593.038 1.376.08 2.297.133l.063.001 1.447.087 4.394.253c.458.028.925.054 1.392.081l.37.02c.028 0 .05.004.077.004 5.082.283 10.317.555 11.923.551.553 0 1.54-.03 2.8-.088 5.346-.223 15.656-.84 19.163-1.05a1.322 1.322 0 011.39 1.125c.097.622.22 1.458.357 2.432.543 3.8 1.29 9.69 1.29 13.18"/><path fill="#EEF0E9" d="M73 179.74c0 3.852-.377 15.201-.886 23.66a262.364 262.364 0 01-.225 3.408 7.453 7.453 0 01-1.446 1.248 6.822 6.822 0 01-2.176.942c-.866.002-1.871.002-2.989.002-.644-.204-1.325-.543-2.053-.936-.217-.116-.439-.237-.666-.36-2.002-1.097-4.492-2.462-7.495-2.462-1.01 0-2.023.178-3.022.532l-.003.008a2.75 2.75 0 01-.263.51c-.411.614-.966 1.066-1.597 1.438a5.876 5.876 0 01-.732.334c-.448.168-.93.281-1.435.314l-.58.006s-.507-.054-.61-.072a5.908 5.908 0 01-1.132-.34c-.724-.31-1.386-.752-1.922-1.397-.196-.247-.39-.519-.515-.882-.918-.3-1.85-.45-2.78-.45-3.003 0-5.495 1.364-7.499 2.46-.219.12-.432.237-.643.35-.71.382-1.374.714-2.003.922-1.225-.001-2.307-.005-3.203-.008a6.938 6.938 0 01-2.088-.93l-.005-.004a7.172 7.172 0 01-.9-.705c-.07-.899-.138-1.881-.205-2.922-.53-8.396-.927-20.673-.927-24.632 0-4.381 1.18-12.568 1.648-15.63a1.327 1.327 0 011.389-1.133c.593.038 1.376.08 2.297.133l.063.001 1.447.087 4.394.253c.458.028.925.054 1.392.081l.37.02c.028 0 .05.003.077.003 5.082.284 10.317.555 11.923.552.553 0 1.54-.03 2.8-.088 5.346-.223 15.656-.84 19.163-1.05a1.322 1.322 0 011.39 1.125c.097.622.22 1.458.357 2.432.543 3.8 1.29 9.69 1.29 13.18"/><path fill="#E1E3DE" d="M69.602 164l-.18.143c-.415.33-.836.653-1.257.974a30.941 30.941 0 01-5.215 3.226c-1.844.892-3.806 1.61-5.818 1.998-1.3.25-2.641.39-3.977.39-.727 0-1.453-.041-2.169-.13-1.987-.243-3.902-.752-5.773-1.468-2.708-1.037-5.235-2.56-7.59-4.285-.08-.058-.158-.115-.237-.175l-1.516-.085a30.107 30.107 0 01-.424-.024c-.027 0-.051-.003-.078-.003L35 164.54c5.948 5.584 12.51 9.46 19.753 9.46 5.073 0 10.482-1.902 16.247-6.451a182.46 182.46 0 00-.355-2.444A1.32 1.32 0 0069.602 164"/><path fill="#64C2A0" d="M70.773 204.674c-.089.12-.183.239-.28.352-.93 1.084-2.186 1.81-3.62 2.011-.425.06-.864.087-1.285-.005-.421-.092-.825-.273-1.216-.454-.792-.367-1.548-.81-2.322-1.212-1.536-.799-3.13-1.52-4.834-1.894-1.934-.426-3.974-.413-5.876.155-.304-1.013-.661-2.04-1.14-2.986-.081-.162-.266-.262-.43-.136-.187.144-.1.442-.076.635.064.542.138 1.083.222 1.622.08.518.147 1.034.204 1.553.044.413-.291.763-.609.992-.792.574-1.69.944-2.692.863-.925-.072-1.887-.5-2.488-1.205-.149-.176-.231-.344-.205-.575.03-.24.085-.484.13-.722.102-.54.22-1.077.334-1.615.228-1.075.463-2.149.674-3.226.052-.263.102-.525.15-.788.043-.225.144-.5.101-.728-.065-.354-.54-.552-.816-.29-.116.112-.178.268-.233.415-.085.222-.165.444-.246.667a60.527 60.527 0 00-.536 1.553 54.727 54.727 0 00-.945 3.125c-.069.256-.134.512-.196.769-2.345-.639-4.86-.428-7.142.351-1.128.387-2.201.905-3.255 1.45-.528.274-1.053.554-1.582.83-.506.264-1.014.538-1.561.718-1.069.348-2.275.146-3.286-.296a5.623 5.623 0 01-1.856-1.348c-.575-8.153-1.033-21.34-1.033-25.673 0-4.235 1.159-12.123 1.66-15.318a.488.488 0 01.52-.41c1.666.1 4.845.287 8.31.478.856.047 1.67.092 2.443.133a38.24 38.24 0 003.798 2.815 30.096 30.096 0 004.165 2.258c1.676.738 3.424 1.333 5.227 1.686 1.885.368 3.82.505 5.739.377 3.492-.232 6.869-1.332 9.952-2.927a37.377 37.377 0 005.613-3.598c.544 3.569 1.533 10.598 1.533 14.513 0 4.045-.446 16.683-1.015 25.085m7.066-57.14c-2.005.243-4.066.088-5.308-1.128C69.49 143.426 62.766 133 51.12 133c-11.643 0-19.12 4.744-23.623 11.502-3.034 4.556-9.497 7.506-9.497 12.274 0 5.295 2.228 19.345 1.89 27.377 0 18.423 3.085 35.898 3.085 37.552C22.975 224.961 39.78 239 47.37 239s24.238-13.048 24.238-17.295c0-1.654 3.084-19.4 3.084-37.823-.242-5.798.885-17.453 1.512-25.396l.55-.718c1.585-1.987 2.616-3.935 3.902-6.245 1.09-1.96-.556-4.262-2.816-3.99"/><path fill="#373A3C" d="M69.022 192.297c-1.241 3.45-3.836 5.057-8.162 5.057-5.734 0-7.834-2.135-9.133-4.223-.53-.854-1.23-4.502-.447-6.547.331-.865.778-1.005.926-1.05 3.58-1.116 13.961-1.434 16.114.669 1.227 1.198 1.145 4.329.702 6.094m-25.749.834c-1.298 2.088-3.4 4.223-9.133 4.223-4.326 0-6.92-1.607-8.162-5.057-.443-1.766-.524-4.897.702-6.094 2.152-2.103 12.533-1.785 16.114-.669.147.045.595.185.926 1.05.783 2.045.083 5.693-.447 6.547m26.239-8.092c-2.916-2.849-14.142-2.218-17.819-1.073-.626.195-1.48.708-1.991 2.041-.254.663-.386 1.445-.43 2.26l-1.055-.458a2.115 2.115 0 00-1.647-.014l-.848.351c-.05-.771-.182-1.508-.424-2.139-.51-1.333-1.365-1.846-1.992-2.041-3.675-1.145-14.902-1.776-17.817 1.073-2.039 1.99-1.512 6.229-1.137 7.694l.021.07c1.465 4.112 4.75 6.197 9.767 6.197 5.156 0 8.417-1.547 10.573-5.015.43-.692.862-2.311.993-4.044l1.52-.63a.394.394 0 01.307.002l1.773.77c.143 1.679.562 3.229.98 3.902C52.443 197.453 55.704 199 60.86 199c5.016 0 8.303-2.085 9.766-6.197l.022-.07c.375-1.465.902-5.703-1.136-7.694"/><path fill="#5DB694" d="M45.402 235h-.28c-5.122-.024-9.65-.704-9.695-.71a.498.498 0 01-.421-.567c.042-.27.3-.457.574-.414.177.026 17.716 2.625 22.811-2.398 3.445-3.396.267-12.156.235-12.245a.493.493 0 01.3-.635.503.503 0 01.646.297c.141.383 3.424 9.447-.468 13.284-2.281 2.249-6.89 3.387-13.702 3.388"/><path fill="#5DB694" d="M40.369 230c-5.394 0-10.532-.668-10.93-.72a.496.496 0 01-.434-.555.505.505 0 01.573-.42c.045.005 4.58.6 9.56.695 6.484.126 10.763-.638 12.379-2.2 3.825-3.701-1.188-9.94-1.239-10.003a.482.482 0 01.084-.691.52.52 0 01.714.081c.232.283 5.626 6.988 1.16 11.309-2.04 1.973-7.055 2.504-11.867 2.504"/><path fill="#5DB694" d="M38.753 225c-1.575 0-3.463-.109-5.675-.325-4.468-.439-8.632-1.183-8.674-1.19a.501.501 0 01-.397-.579.492.492 0 01.566-.406c4.54.816 16.818 2.525 19.078.66a.957.957 0 00.373-.768c.027-1.457-2.182-3.753-3.036-4.515a.508.508 0 01-.048-.705.482.482 0 01.689-.05c.349.312 3.411 3.105 3.37 5.289a1.977 1.977 0 01-.736 1.53c-.858.707-2.677 1.058-5.51 1.059m30.771 1a.477.477 0 01-.446-.318c-.015-.04-1.483-4.04-3.043-8.007a.497.497 0 01.263-.64c.243-.1.52.02.62.271 1.564 3.979 3.036 7.99 3.051 8.03a.494.494 0 01-.277.632.48.48 0 01-.168.032m6.914-72c-2.218 0-5.194-.72-8.63-2.132C58.462 148.024 49 140.478 49 133.49c0-.27.221-.491.495-.491.273 0 .495.22.495.491 0 6.486 9.376 13.841 18.197 17.47 5.273 2.167 9.578 2.676 10.968 1.296a.497.497 0 01.7 0 .49.49 0 010 .695c-.706.701-1.88 1.048-3.417 1.048M72.29 159c-1.547 0-3.34-.217-4.975-.526-10.72-2.025-25.342-9.206-31.274-22.78a.495.495 0 01.26-.653.502.502 0 01.658.258c5.776 13.218 20.063 20.22 30.542 22.2 4.192.791 7.02.576 7.646-.047a.501.501 0 01.706 0 .493.493 0 010 .702c-.614.61-1.955.846-3.564.846"/><path fill="#5DB694" d="M62.193 164c-2.328 0-4.798-.22-7.293-.677-5.904-1.08-20.34-5.155-26.856-19.617a.5.5 0 01.25-.661.497.497 0 01.66.25c6.323 14.03 20.377 17.993 26.125 19.045 8.191 1.5 16.031.422 19.068-2.619a.5.5 0 01.707.708c-2.3 2.3-7.067 3.571-12.661 3.571"/><path fill="#E7E7E5" d="M73.442 206a434.209 434.209 0 01-1.22 11.33c1.928-3.783 2-8.747 1.55-10.987a.417.417 0 00-.33-.343m-51.898.031a.435.435 0 00-.248.324c-.475 2.377-.637 7.801 1.557 11.645-.356-2.926-.85-7.069-1.309-11.969"/><path fill="#62B395" d="M72.927 207a.402.402 0 00-.384.274 9.928 9.928 0 01-1.248 2.384c-.954 1.32-2.415 2.519-4.606 2.718a7.9 7.9 0 01-.645.028c-2.378 0-5.984-3.998-11.29-3.998-1.57 0-2.952.406-4.072.917l-6.555-.12a9.679 9.679 0 00-3.798-.797c-5.307 0-8.912 3.998-11.287 3.998-.331 0-.645-.022-.946-.063-2.365-.322-3.834-1.83-4.72-3.316a10.011 10.011 0 01-.833-1.751.401.401 0 00-.543-.238c.451 4.568.937 8.43 1.286 11.158a8.42 8.42 0 001.334 1.701c1.87 1.83 4.77 3.105 9.177 3.105 4.431 0 7.605-.898 9.775-1.912-.721-1.165-1.882-2.343-2.45-2.849a.516.516 0 01-.048-.714.489.489 0 01.697-.05c.242.215 1.764 1.601 2.692 3.162 1.588-.869 2.488-1.739 2.852-2.138.053-.057.124-.085.194-.085s.14.028.19.085c.476.51 1.851 1.806 4.44 2.876-.737-2.282-2.129-4.116-2.155-4.15a.513.513 0 01.08-.71.49.49 0 01.695.082c.128.165 1.87 2.456 2.56 5.219 1.683.564 3.777 1.008 6.34 1.142a28.033 28.033 0 00-.986-3.856.51.51 0 01.465-.68c.202 0 .39.128.464.334.06.167.68 1.947 1.076 4.238.2.004.402.006.608.006 2.347 0 4.271-.418 5.839-1.118-.423-1.102-.89-2.306-1.365-3.505a.512.512 0 01.272-.66.508.508 0 01.185-.037c.196 0 .381.12.46.316.464 1.176.922 2.354 1.338 3.438a9.935 9.935 0 002.118-1.597 9.46 9.46 0 001.667-2.268c.339-2.687.783-6.324 1.2-10.562a.354.354 0 00-.073-.007"/><path fill="#58AA8B" d="M58.487 218a.52.52 0 00-.168.028c-.251.083-.381.337-.29.567.014.034.583 1.486.97 3.373.326.016.659.026 1.001.032-.389-2.004-1-3.561-1.058-3.708a.484.484 0 00-.455-.292m-7.913-1a.668.668 0 00-.356.1c-.248.161-.291.455-.095.658.031.032 1.65 1.726 2.504 3.834.429.141.886.278 1.373.408-.803-2.553-2.827-4.67-2.976-4.823a.63.63 0 00-.45-.177m-9.01 0a.567.567 0 00-.425.187.526.526 0 00.054.763c.648.542 1.97 1.802 2.792 3.05.362-.16.7-.321 1.015-.483-1.058-1.67-2.792-3.154-3.067-3.384a.578.578 0 00-.37-.133m24.868 0a.411.411 0 00-.162.035c-.22.1-.327.381-.237.628.414 1.143.822 2.288 1.191 3.337.27-.132.53-.274.777-.426a358.327 358.327 0 00-1.169-3.273.435.435 0 00-.4-.301"/><path fill="#5DBC97" d="M70.525 214.838C68.612 216.698 65.74 218 61.52 218c-8.98 0-12.94-3.565-13.824-4.501a.266.266 0 00-.391 0C46.43 214.44 42.526 218 33.55 218c-4.485 0-7.436-1.274-9.34-3.105-3.598-3.453-3.47-9.959-2.914-12.557.088-.41.651-.456.8-.064.193.521.466 1.133.848 1.752.901 1.485 2.397 2.993 4.802 3.314.306.042.626.065.963.065 2.417 0 6.087-3.998 11.485-3.998a9.97 9.97 0 013.867.797l.634.011c.045.08.104.171.167.242.201.224.463.439.753.618.167.104.341.197.52.273.251.11.51.181.769.235l.62.059.155-.005c.516-.007 1.032-.166 1.497-.382.074-.035.92-.578 1.141-.845a.825.825 0 00.059-.094l.356.006c1.14-.51 2.545-.915 4.143-.915 5.4 0 9.068 3.998 11.488 3.998.227 0 .445-.011.657-.028 2.229-.2 3.716-1.4 4.687-2.717a9.894 9.894 0 001.27-2.386c.146-.392.709-.353.794.052.558 2.584.315 9.049-3.246 12.512"/><path fill="#EEF0E9" d="M49.19 201.458c.44 1.87.81 3.568.81 3.984 0 1.023-1.634 2.558-3.5 2.558s-3.5-1.535-3.5-2.558c0-.678.985-4.762 1.65-7.442"/><path fill="#373A3C" d="M90.326 184.313h-.66c-.534-5.613-4.717-10.432-10.34-11.703l-.108-.026c-.014-.372-.08-.793-.395-1.109a1.283 1.283 0 00-.939-.4H76.79c.092-1.392.188-2.785.292-4.177.183-2.46.405-4.916.61-7.375.018-.216-.029-.488.096-.677.141-.213.337-.405.492-.61.36-.477.703-.965 1.03-1.465a41.487 41.487 0 001.611-2.687c5.881 7.302 9.405 16.565 9.405 26.631v3.598zm-4.806 8.439a11.666 11.666 0 01-6.482 4.05l-.584.045v-22.653l.536.056c5.254 1.205 9.062 5.94 9.062 11.28 0 2.626-.9 5.19-2.532 7.222zm-8.063 5.295H75.7c.034-.514.07-1.026.101-1.538.154-2.475.269-4.95.34-7.43.069-2.478.042-4.959.105-7.437.063-2.474.198-4.946.344-7.415.03-.5.065-.998.095-1.498h.773v25.318zm-60.837 0v-25.318h1.534c.145 1.652.273 3.305.368 4.96.071 1.224.124 2.448.144 3.674.009.618.01 1.234-.001 1.85-.012.586-.05 1.169-.049 1.755.007 2.48.077 4.962.185 7.44.081 1.88.191 3.76.32 5.639h-2.5zm-1.54-25.367a13.214 13.214 0 00-9.884 11.633h-.524v-3.598c0-15.774 8.65-29.575 21.476-36.946a18.826 18.826 0 01-1.546 1.83c-1.546 1.6-3.288 3.003-4.809 4.628-1.442 1.544-2.701 3.377-2.958 5.521-.07.587-.053 1.179-.034 1.768.022.625.059 1.251.102 1.877.086 1.234.197 2.468.316 3.7.23 2.451.492 4.899.726 7.35l.058.632h-.955c-.931 0-1.787.746-1.968 1.605zm.543 24.074a11.492 11.492 0 01-6.28-4.002 11.587 11.587 0 01-2.541-7.222c0-5.363 3.61-9.946 8.82-11.232v22.456zm56.983 5.22v-.003c.48-8.266.823-18.676.823-22.417 0-4.38-1.161-12.42-1.662-15.67a1.737 1.737 0 00-.031-.16c.61-.52 1.205-1.057 1.785-1.608.645-.61 1.308-1.21 1.902-1.871-.228 2.725-.459 5.45-.677 8.177a320.6 320.6 0 00-.555 8.138 96.778 96.778 0 00-.158 4.066c-.015 1.352-.008 2.705-.018 4.057-.022 2.72-.081 5.44-.213 8.158-.13 2.705-.309 5.408-.534 8.108l-.081.958c-.196-.023-.396 0-.58.066zm-22.742-.732c.063.544.137 1.089.22 1.631.08.522.146 1.04.202 1.564.044.416-.289.768-.603.998-.784.577-1.676.95-2.668.868-.916-.072-1.87-.502-2.465-1.213-.148-.176-.229-.345-.203-.579.03-.241.084-.486.128-.726.102-.543.218-1.084.331-1.625.226-1.082.46-2.163.669-3.246.051-.265.101-.528.15-.793.04-.227.14-.503.099-.733-.065-.356-.536-.556-.81-.291-.115.112-.176.27-.23.417a59.767 59.767 0 00-.775 2.234 55.032 55.032 0 00-.936 3.145c-.068.257-.133.515-.194.773-2.324-.642-4.816-.43-7.079.354-1.117.389-2.18.91-3.224 1.46-.524.274-1.044.557-1.568.833-.501.267-1.005.543-1.547.723-1.059.351-2.254.148-3.256-.297a5.573 5.573 0 01-1.839-1.357c-.57-8.204-1.024-21.475-1.024-25.835 0-4.263 1.149-12.2 1.644-15.416a.488.488 0 01.518-.411c1.65.099 4.8.288 8.234.48.848.047 1.654.092 2.42.133a37.769 37.769 0 003.763 2.833 29.558 29.558 0 004.127 2.272c1.661.743 3.393 1.342 5.18 1.698a21.74 21.74 0 005.686.379c3.461-.234 6.807-1.34 9.862-2.946a37.056 37.056 0 005.562-3.62c.538 3.59 1.52 10.665 1.52 14.605 0 4.07-.443 16.788-1.006 25.244-.088.12-.181.24-.278.354-.92 1.09-2.166 1.822-3.587 2.024-.42.06-.856.087-1.273-.005-.418-.093-.818-.275-1.205-.457-.785-.369-1.535-.814-2.3-1.22-1.523-.804-3.102-1.53-4.791-1.906-1.917-.428-3.938-.415-5.823.156-.301-1.02-.655-2.052-1.129-3.005-.08-.163-.264-.264-.427-.136-.184.144-.098.444-.075.639zm20.256 12.906c.043-.04.127-.157.19-.185-.035.022-.08.088-.102.108l-.4.395c-.095.095-.193.187-.288.282l.158-.169c-.163.157-.324.316-.485.473.073-.064.146-.13.217-.199-.078.075-.154.15-.23.226-.047.043-.149.109-.197.17a.563.563 0 01.087-.09c-3.003 2.55-7.16 2.746-10.918 2.363-2.026-.205-4.044-.637-5.934-1.404a15.111 15.111 0 01-2.595-1.35c-.409-.27-.801-.567-1.167-.891-.315-.281-.598-.654-1.032-.75-.457-.098-.809.167-1.111.47-.34.342-.7.656-1.088.942a12.484 12.484 0 01-2.568 1.436c-1.845.78-3.836 1.216-5.818 1.47-3.74.48-8.03.46-11.248-1.773-1.48-1.027-2.495-2.475-3.105-4.154-.628-1.73-.867-3.6-.856-5.435.004-.49.025-.98.07-1.47.048.089.098.18.15.268l.01.015.008.013-.007-.009.012.018c.824 1.412 2.043 2.66 3.567 3.346.837.378 1.77.608 2.688.634 1.007.03 1.936-.293 2.827-.731 1.783-.88 3.469-1.948 5.364-2.593a11.523 11.523 0 012.986-.61 9.097 9.097 0 011.625.036c.5.056.979.178 1.47.284.162.035.308.057.383.216.098.206.188.398.324.583.29.398.653.738 1.056 1.02.778.544 1.696.855 2.638.954 1.67.176 3.527-.641 4.468-2.041.062-.092.12-.184.164-.283.039-.083.063-.186.132-.25.121-.113.386-.141.537-.184a9.082 9.082 0 011.53-.302 9.964 9.964 0 013.114.175c1.973.412 3.763 1.35 5.517 2.305.891.486 1.807 1.006 2.795 1.27.923.247 1.927.153 2.843-.082 1.634-.419 3.082-1.428 4.084-2.772.29-.39.528-.816.758-1.242.092 1.432-.048 2.877-.347 4.282-.283 1.325-.723 2.624-1.385 3.812a9.236 9.236 0 01-1.333 1.834l.442-.43zM34.565 138.17a24.02 24.02 0 016.2-3.188c2.31-.798 4.726-1.27 7.161-1.486 2.468-.217 4.99-.25 7.415.316 2.244.525 4.364 1.483 6.293 2.727 1.944 1.253 3.7 2.777 5.308 4.43a64.795 64.795 0 012.488 2.75c.806.93 1.586 1.9 2.45 2.775.814.82 1.842 1.286 2.979 1.466a9.474 9.474 0 001.875.091c.592-.026 1.208-.176 1.799-.064 1.003.19 1.758 1.176 1.67 2.19.002-.001.002-.003.002-.005l-.004.023-.001.018c0 .008-.002.012-.002.015l-.001.007c-.052.427-.28.784-.467 1.16-.203.407-.44.803-.669 1.196-.472.82-.956 1.63-1.46 2.428-.935 1.478-1.913 2.946-3.09 4.243-.626.688-1.316 1.317-1.998 1.949a49.788 49.788 0 01-2.076 1.845c-1.402 1.163-2.877 2.264-4.426 3.228-3.096 1.93-6.559 3.354-10.201 3.806-1.87.232-3.755.209-5.617-.089a25.56 25.56 0 01-5.272-1.463c-3.345-1.317-6.371-3.324-9.179-5.538a61.719 61.719 0 01-2.155-1.796c-.361-.31-.717-.627-1.073-.944-.151-.135-.29-.278-.444-.41-.116-.102-.284-.241-.438-.115-.125.103-.073.256.017.359.165.19.348.369.521.55a39.814 39.814 0 001.917 1.914l-.355-.02c-3.432-.194-6.578-.38-8.226-.482a2.148 2.148 0 00-2.273 1.824c-.501 3.251-1.663 11.29-1.663 15.667 0 3.844.351 14.578.823 22.724 0 .005 0 .01.002.015a1.116 1.116 0 00-.386-.28c-.031-.015-.171-.043-.191-.067-.017-.02-.008-.107-.011-.135-.014-.172-.029-.345-.042-.519-.027-.314-.052-.63-.077-.943a232.309 232.309 0 01-.543-9.447 168.03 168.03 0 01-.12-7.646c.022-2.554-.088-5.099-.274-7.645-.186-2.525-.43-5.05-.678-7.57-.251-2.523-.542-5.045-.748-7.571-.102-1.246-.193-2.505-.187-3.756.007-1.163.388-2.217 1.023-3.185 1.243-1.903 3.061-3.38 4.71-4.915.861-.8 1.697-1.627 2.456-2.523.76-.906 1.384-1.906 2.084-2.855a23.445 23.445 0 015.154-5.059zm36.485 82.463c-.054.551-.056 1.127-.183 1.669-.12.512-.4.976-.677 1.417-.287.457-.613.889-.954 1.308-1.398 1.712-3.034 3.233-4.724 4.658a59.297 59.297 0 01-5.322 3.992c-1.849 1.236-3.776 2.373-5.793 3.313a22.343 22.343 0 01-3.119 1.208c-1.067.317-2.189.528-3.304.429-1.109-.1-2.193-.443-3.225-.844a28.111 28.111 0 01-3.003-1.397c-1.95-1.034-3.804-2.237-5.599-3.514a66.36 66.36 0 01-5.277-4.174 51.467 51.467 0 01-2.464-2.298c-.766-.766-1.522-1.554-2.189-2.41a10.191 10.191 0 01-.882-1.305c-.13-.235-.155-.477-.193-.736-.042-.291-.084-.582-.123-.874-.16-1.163-.315-2.325-.466-3.488l-.208-1.609c2.44 2.393 5.91 3.257 9.242 3.36 3.56.11 7.248-.36 10.546-1.75.789-.332 1.555-.72 2.282-1.171.365-.226.72-.47 1.062-.731.166-.128.329-.258.487-.394.066-.058.146-.167.226-.2.074-.033.093-.009.16.051 1.294 1.117 2.787 1.957 4.376 2.587 1.645.65 3.38 1.072 5.13 1.321 1.773.255 3.588.361 5.38.269 1.735-.088 3.472-.399 5.082-1.07a11.036 11.036 0 003.735-2.534c.262-.274.509-.562.739-.863l-.526 4.054c-.075.574-.164 1.149-.216 1.726zm10.739-68.123c.048-.088.098-.176.144-.264.253-.463.454-.94.548-1.46a4.378 4.378 0 00-.513-2.957 4.446 4.446 0 00-1.924-1.786 4.176 4.176 0 00-1.508-.407c-.59-.041-1.172.045-1.759.078-1.104.065-2.38-.004-3.201-.832-.833-.84-1.568-1.78-2.337-2.675-1.537-1.787-3.152-3.514-4.937-5.062-1.715-1.488-3.586-2.813-5.617-3.841-2.047-1.038-4.257-1.776-6.537-2.09-2.384-.33-4.819-.24-7.206.023-2.355.26-4.689.75-6.93 1.522a26.835 26.835 0 00-5.999 2.937 25.943 25.943 0 00-5.58 4.996l-.005.001C13.408 147.814 3 163.077 3 180.715v7.91c0 .461.374.833.836.833a.834.834 0 00.836-.832v-2.493h.484a13.197 13.197 0 002.887 7.634 13.296 13.296 0 007.038 4.526c.191.882 1.105 1.408 1.967 1.408h2.192c.186 2.46.407 4.916.662 7.37.252 2.461.54 4.917.847 7.37.155 1.227.314 2.453.477 3.677l.244 1.844c.078.592.183 1.186.225 1.782.02.294.023.586.09.873.065.28.164.55.284.81.234.506.54.98.863 1.436.663.935 1.441 1.787 2.234 2.614 1.612 1.685 3.366 3.232 5.18 4.696a69.182 69.182 0 005.757 4.185c1.962 1.273 4.002 2.437 6.158 3.354 1.07.455 2.171.85 3.311 1.083a9.978 9.978 0 003.455.1c2.302-.337 4.506-1.312 6.56-2.364 2.106-1.078 4.121-2.338 6.06-3.69a59.516 59.516 0 005.627-4.455c1.702-1.522 3.368-3.159 4.65-5.058.631-.933 1.217-1.996 1.313-3.136.051-.597.053-1.198.11-1.795.06-.614.138-1.226.219-1.839.319-2.445.63-4.892.91-7.345.283-2.454.538-4.91.762-7.37.125-1.38.238-2.76.34-4.142h2.306c.406 0 .733-.078.973-.32.284-.285.347-.592.36-.914l.15-.023a13.358 13.358 0 007.46-4.65 13.23 13.23 0 002.883-7.661h.616v2.493c0 .46.374.832.836.832a.835.835 0 00.838-.832v-7.91c0-10.708-3.836-20.54-10.211-28.207zM79.5 149.5v-.001.002z"/></g><g><path fill="#EEF0E9" d="M131.13 265c-3.2 0-5.853-2.223-7.887-6.607-1.244-2.682-2.049-5.725-2.049-7.754 0-2.438 1.252-7.474 2.174-10.856a8.187 8.187 0 01-.581-5.255 6.033 6.033 0 01-1.057-3.446c0-1 .281-2.4 1.445-3.907-.705-3.446-2.087-10.64-3.324-19.63-2.878-1.01-4.851-3.75-4.851-6.815v-9.813c0-2.17 1.007-4.21 2.641-5.565l-.01-.478a199.72 199.72 0 01-.294-10.566c0-.505.015-1.026.046-1.55l-.107-5.175.005-.34.027-1.652.008-.092.041-.56c.04-.552.083-1.121.146-1.697l.007-.058c.031-.239.058-.477.085-.717.054-.47.108-.956.19-1.465l.149-1.092.012-.067c.018-.1.023-.231.014-.39l-.008-.217c-.017-.422-.042-1.058.134-1.769.066-.274.14-.532.21-.781l.094-.333.01-.036c.834-2.92 2.078-5.829 3.7-8.646a37.591 37.591 0 012.596-3.933l.036-.047.037-.046c.141-.175.28-.352.417-.53.305-.39.65-.833 1.042-1.267l.717-.822.021-.023c.19-.21.374-.4.552-.585l.242-.252c.94-.996 2.004-1.981 3.446-3.193l.032-.027.033-.025c.995-.791 2.325-1.815 3.803-2.73 1.415-.919 2.858-1.665 4.085-2.276l.039-.02.04-.018c1.706-.787 3.051-1.332 4.362-1.763 3.096-1.04 6.2-1.694 9.228-1.948l.058-.004c.201-.013.403-.029.604-.045.549-.042 1.116-.086 1.731-.089l1.256-.028.254.004.804.018c.11.004.22.006.327.008.239.004.51.009.81.027l1.121.08c.628.034 1.21.11 1.725.176.204.027.408.053.614.076l.065.009c3.018.41 6.089 1.223 9.127 2.42a39.037 39.037 0 018.282 4.492c1.4.971 2.639 2.027 3.667 2.932l.034.03.033.03c1.003.938 2.174 2.067 3.258 3.34.916 1.03 1.827 2.212 2.865 3.714l.023.035.023.035c.699 1.073 1.6 2.504 2.37 4.054l.155.304c.115.227.235.462.356.715l.029.064.431.964c.253.538.457 1.07.637 1.542.077.202.155.404.235.605l.021.052.02.053c.235.656.47 1.36.72 2.153.3.916.23 1.762.172 2.274l.056.29c.54 2.847 1.062 5.895 1.01 9.098l-.223 11.521c-.035 1.882-.075 3.9-.127 6.247 1.627 1.355 2.629 3.391 2.629 5.552v9.814c0 3.217-2.173 6.077-5.286 6.954l-4.228 1.19a5.573 5.573 0 01-4.31 2.94c-.615 2.155-1.245 3.878-1.879 5.138-1.7 3.383-6.774 8.36-10.603 11.593-6.395 5.4-11.365 8.026-15.194 8.026-3.485 0-7.937-2.2-13.61-6.726a78.335 78.335 0 01-5.193-4.542c-.144.52-.266 1-.368 1.419.987 1.803.985 3.421.763 4.547a6.937 6.937 0 01-.698 1.932c.448 1.408.841 3.583-.263 5.834.89 2.85 2.39 8.103 2.39 11.18 0 .134-.01 3.316-.772 6.607-.478 2.065-1.165 3.762-2.044 5.043-1.388 2.023-3.368 3.137-5.575 3.137"/><path fill="#E0E2DC" d="M127.711 204c-.132 0-.268-.012-.408-.037-1.038-.174-2.231-.967-2.86-1.778-.276-.355-.443-.714-.443-1.025l6.964-.808-.094-.615c2.975-.579 5.892-1.495 8.698-2.637a63.579 63.579 0 009.236-4.69c.559-.342 1.114-.69 1.663-1.048a69.318 69.318 0 002.268-1.534 69.737 69.737 0 004.464-3.414 66.22 66.22 0 007.32-7.127c2.245-2.542 4.275-5.273 5.967-8.221 1.109-1.932 2.08-3.956 2.798-6.066.982.92 1.887 1.907 2.716 2.942-.078.247-.16.493-.243.741-5.187 15.158-23.497 31.7-42.933 34.817-.59.095-1.18.176-1.77.244a39.427 39.427 0 01-3.343.256"/><path fill="#ED827B" d="M128.936 234.949c.165-.213.339-.535.283-.928a1.1 1.1 0 00-.283-.586c-.19-.214-.452-.374-.707-.515v2.974c.126-.268.294-.51.499-.714.047-.047.126-.125.208-.231zm2.854-.058c.12.302.227.584.305.85v-3.86l-.042.055c-.289.383-.616.815-.657 1.348l-.006.116.004.132c.03.436.208.886.396 1.359zm.305 2.454a2.281 2.281 0 01-.5.696l-.204.2c-1.302 1.227-1.976 1.204-2.455.855a1.6 1.6 0 01-.208-.179 2.563 2.563 0 01-.499-.699v2.295s-2.362 8.323-2.362 10.884S128.443 261 131.02 261c2.578 0 3.608-6.829 3.608-10.03 0-3.2-2.533-10.883-2.533-10.883v-2.742zm-.87-35.141v4.807a.795.795 0 01-.796.792h-1.08a.792.792 0 01-.792-.789v-4.444c.697-.076 1.39-.167 2.087-.274l.057-.009h.001c.166.007.36-.056.522-.083zm44.901-50.68S173.062 140 156.445 140C139.827 140 122 158.78 122 174.999c0 9.403.774 18.914 1.776 27.285.234.166.493.297.768.388l.085.026c.31.092.64.135.978.117.63-.034 1.26-.08 1.875-.137v2.828l-2.678-.753-.748-.21c1.814 14.235 4.173 24.66 4.173 24.66v1.239c.214-.178.453-.353.707-.52.382-.25.801-.481 1.234-.66.503-.206.877-.276 1.119-.276l.11.006c.099.01.165.037.197.067.199.198.364.378.499.547v-1.043s1.185-7.143 4.301-11.935l-.012-.017c-.092-.126-.179-.255-.268-.384a11.41 11.41 0 01-1.118-2.127c-.344-.866-.61-1.762-.881-2.654-.297-.98-.565-1.97-.807-2.968-.112-.46-.22-.923-.322-1.386l.002-.08v-5.637c.327-.073.656-.149.98-.226l.006-.002.03-.007.004-.002.012-.001.01-.003.002-.002h.005l.006-.001h.001l.007-.002.024-.006.038-.01h.003l.058-.014.014-.004.007-.002.032-.008h.001l.07-.017.028-.007.014-.003.036-.01a52.666 52.666 0 009.72-3.506 63.22 63.22 0 009.078-5.309l.289-.204a67.6 67.6 0 007.8-6.43c2.518-2.414 4.858-5.019 6.919-7.831 2.079-2.838 3.867-5.893 5.2-9.146.16-.393.31-.788.45-1.186.7.71 1.362 1.46 1.981 2.239.533.67 1.033 1.363 1.506 2.076a31.954 31.954 0 012.664 4.932 29.917 29.917 0 011.803 5.561c.155.72.277 1.443.364 2.168.159 1.281.218 2.571.194 3.87a76.171 76.171 0 01-.176 3.747c-.058.824-.127 1.646-.204 2.467l-.01.107 1.248-.566c.055-.64.104-1.28.147-1.92l.006-.088c.033-.502.064-1.007.088-1.512.063-1.232.096-2.467.076-3.7-.01-.52-.039-1.039-.081-1.557h.097c.438 0 .795.354.795.789v7.476l.963-.436.112-.743v-4.79l.626.177c2.758-22.588-.332-36.21-9.907-36.21z"/><path fill="#B76F71" d="M122 175v-1.056c7.307 0 18.941-13.704 18.941-29.944H142c0 17.112-12.102 31-20 31"/><path fill="#B76F71" d="M123 189v-1.07c7.133 0 14.962-5.053 21.477-13.865 5.628-7.61 9.43-16.985 9.461-23.328.02-4.032-.918-7.807-2.784-11.22l.93-.517c1.954 3.575 2.935 7.526 2.916 11.742C154.937 163.34 140.086 189 123 189"/><path fill="#B76F71" d="M123.091 197l-.091-1.05c13.294-1.155 24.134-6.035 31.35-14.11 6.284-7.036 9.693-16.4 9.596-26.368a42.88 42.88 0 00-2.879-15.093l.983-.379a43.932 43.932 0 012.95 15.462c.166 17.468-10.707 38.826-41.91 41.538"/><path fill="#373A3C" d="M159.432 203.65c.609.493 1.01 1.213 1.264 1.928.162.457.267.933.302 1.415.017.239-.054.457-.193.658-.283.406-.729.712-1.146.98-.423.272-.862.524-1.31.755-.954.492-1.983.73-3.065.558-1.054-.167-2.002-.729-2.881-1.283-.412-.259-.852-.545-1.151-.926-.214-.271-.273-.544-.246-.875.08-.991.437-1.99.87-2.886a7.72 7.72 0 01.643-1.105c.203-.288.45-.62.75-.825.166-.111.411-.002.387.206-.015.127-.157.254-.225.355a5.727 5.727 0 00-.545 1.08c-.367.924-.627 1.918-.71 2.905-.014.163-.007.325-.013.488l-.01-.095c.418.372.907.647 1.406.905.54.278 1.099.595 1.702.724a3.537 3.537 0 001.826-.098c.449-.148.875-.384 1.293-.596.296-.15.587-.31.87-.481.127-.078.255-.157.376-.245.037-.027.244-.154.242-.204l-.02.095.018-.074.002-.018-.007.093a5.818 5.818 0 00-.311-2.07c-.112-.32-.246-.647-.445-.926-.08-.112-.18-.214-.118-.361a.277.277 0 01.445-.077"/><path fill="#C7C9C7" d="M150.375 214.001c.7.055 1.396.176 2.094.256.907.103 1.818.174 2.73.203 1.844.056 3.671-.115 5.498-.353.3-.038.605-.095.908-.103.338-.01.548.422.258.66-.065.052-.152.082-.226.114-.184.082-.37.16-.557.237-.4.164-.807.306-1.22.43a13.563 13.563 0 01-5.654.434 13.55 13.55 0 01-2.91-.712c-.362-.134-.735-.27-1.08-.447-.345-.177-.265-.75.159-.719"/><path fill="#EABF7F" d="M126 231.622c0-1.544 4.539-4.56 5.756-3.337 2.8 2.816 0 3.749 0 4.95 0 1.202 1.95 3.298 0 5.26-1.048 1.053-2.553 2.26-3.91.895-1.357-1.365-1.249-3.584 0-4.84 1.25-1.256-1.846-1.071-1.846-2.928"/><path fill="#64C2A0" d="M194 191.15v9.701a3.296 3.296 0 01-2.387 3.175l-6.29 1.793v.534c0 .91-.733 1.647-1.636 1.647h-1.052a1.641 1.641 0 01-1.635-1.647v-3.918c.038-.204.073-.41.108-.614.027-.152.052-.304.077-.455.066-.388.128-.775.19-1.164l.049-.318c.064-.423.127-.848.188-1.272l.052-.391c.039-.278.074-.556.112-.834.025-.208.054-.419.079-.627.112-.922.213-1.846.3-2.77a109.591 109.591 0 00.29-3.931c.038-.736.066-1.47.08-2.206a27.222 27.222 0 00-.19-3.824c.098-.02.197-.029.3-.029h1.052a1.64 1.64 0 011.635 1.645v.535l6.291 1.793a3.296 3.296 0 012.387 3.176m-62 9.188v5.963c0 .938-.733 1.699-1.637 1.699h-1.053c-.902 0-1.634-.76-1.634-1.696v-.553l-3.486-1.024-2.806-.824c-1.412-.415-2.384-1.754-2.384-3.275V190.62c0-1.525.972-2.863 2.385-3.278l1.157-.342c.256 4.227.614 8.36 1.029 12.286.115 1.098 1.04 1.903 2.102 1.842.782-.045 1.56-.109 2.333-.194 1.348-.14 2.68-.342 3.994-.597"/><path fill="#373A3C" d="M193.26 200.728c0 1.095-.731 2.07-1.779 2.37l-4.51 1.286-1.422.406v-17.938l.617.176 1.696.483 2.87.819.749.214c.312.088.597.237.841.431.578.46.938 1.169.938 1.938v9.815zm-8.771 5.567c0 .436-.352.79-.783.79h-1.063a.772.772 0 01-.55-.228.796.796 0 01-.232-.562v-2.03c.15-.801.294-1.603.43-2.407.476-2.826.842-5.673 1.087-8.53.054-.639.102-1.278.144-1.918l.006-.088c.033-.503.064-1.007.087-1.511.062-1.232.094-2.465.075-3.697-.01-.52-.038-1.04-.08-1.557h.096c.431 0 .783.354.783.788v20.95zm-2.715-9.07c-.037.28-.073.561-.112.843-.019.132-.035.264-.053.396-.062.428-.125.858-.19 1.287l-.05.321a87.503 87.503 0 01-.27 1.637c-.034.207-.071.415-.109.622l-.052.29c-.04.22-.08.44-.121.657-.057.309-.116.618-.178.924l-.028.152-.11.542-.192.915c-.056.26-.112.522-.17.783-.4 1.794-.845 3.583-1.412 5.329-.297.914-.629 1.835-1.076 2.687-.427.812-.972 1.556-1.553 2.264-1.24 1.51-2.594 2.927-3.994 4.286a73.203 73.203 0 01-4.348 3.913 52.93 52.93 0 01-4.68 3.472 25.055 25.055 0 01-2.474 1.448c-.849.425-1.75.835-2.682 1.027a4.19 4.19 0 01-1.297.075 6.381 6.381 0 01-1.428-.33c-.927-.309-1.81-.768-2.658-1.25-1.72-.978-3.334-2.14-4.889-3.359a67.572 67.572 0 01-4.436-3.793 66.316 66.316 0 01-4.133-4.201 29.762 29.762 0 01-1.403-1.669c-.083-.108-.161-.217-.242-.325l-.196-.264-.012-.017c-.091-.126-.177-.256-.265-.384a11.409 11.409 0 01-1.101-2.125c-.34-.866-.602-1.76-.869-2.652a63.256 63.256 0 01-1.113-4.352l.002-.08v-5.632c.322-.073.647-.149.966-.226l.006-.002.029-.008.004-.001.013-.002.008-.003h.002l.001-.001h.005l.006-.002h.001l.006-.001.025-.007.037-.009.003-.001.058-.014.013-.003.007-.003.031-.007h.002l.069-.017.027-.008.014-.003.036-.009a51.503 51.503 0 009.58-3.504 62.176 62.176 0 008.949-5.305l.285-.204a66.743 66.743 0 007.688-6.427c2.482-2.411 4.79-5.014 6.82-7.824 2.05-2.836 3.812-5.889 5.126-9.141.158-.392.306-.787.445-1.185.69.71 1.342 1.458 1.952 2.237.525.67 1.018 1.363 1.484 2.075a32.115 32.115 0 012.627 4.929 30.203 30.203 0 011.776 5.558c.154.72.273 1.44.359 2.165.157 1.281.216 2.57.191 3.869a63.969 63.969 0 01-.081 2.233 69.573 69.573 0 01-.092 1.511c-.057.823-.125 1.645-.2 2.465l-.011.107c-.085.9-.184 1.798-.292 2.696-.026.21-.055.423-.08.635zm-58.509 6.087l-.749-.214a2.466 2.466 0 01-1.776-2.368v-9.815c0-.773.363-1.485.944-1.94h.75l.25 2.347c.338 3.14.85 7.353.946 8.248.032.296.112.575.225.835l.017.04.054.102a1.98 1.98 0 00.247.406c.045.061.094.119.143.175l.044.052c.053.059.11.112.168.167l.04.04a2.85 2.85 0 00.987.57l.084.026c.304.093.63.135.963.117a44.181 44.181 0 001.85-.137v2.827l-2.641-.754-.737-.209-1.809-.515zm6.245 2.985v-4.441c.687-.077 1.37-.167 2.058-.274l.056-.01h.001c.163.007.355-.055.514-.083v4.805c0 .436-.35.79-.784.79h-1.064a.785.785 0 01-.781-.787zm2.96 20.568c-.47-.053-1.09.03-1.902.37-.27.112-.554.253-.846.415-.499-2.357-2.203-10.733-3.665-21.72l1.716.488a2.532 2.532 0 002.518 2.42h1.064c.596 0 1.145-.21 1.574-.558.201.822.415 1.64.646 2.455.458 1.616.946 3.291 1.775 4.762.207.367.434.724.677 1.072-2.102 3.775-3.179 8.405-3.558 10.296zm-.163 5.932c.03.436.205.885.39 1.357.118.303.224.583.3.85.174.589.22 1.104 0 1.603-.1.233-.26.464-.491.696l-.202.199c-1.284 1.225-1.948 1.203-2.42.855a1.651 1.651 0 01-.205-.18 2.54 2.54 0 01-.492-.698 2.64 2.64 0 01-.256-1.199c.006-.394.095-.779.256-1.123.124-.268.29-.51.492-.714.047-.047.125-.124.205-.23.163-.214.334-.535.279-.927a1.11 1.11 0 00-.28-.587c-.186-.214-.444-.374-.696-.514l-.128-.073a5.686 5.686 0 01-.569-.348c-.26-.193-.407-.393-.407-.675 0-.16.15-.414.407-.71.183-.212.421-.443.697-.67.211-.178.446-.353.697-.52.377-.25.79-.481 1.217-.659.495-.206.864-.277 1.102-.277l.108.007c.098.01.163.036.195.066.196.198.359.379.491.547.852 1.076.501 1.604 0 2.274l-.04.055c-.285.382-.608.814-.648 1.347l-.007.115.005.133zm-.368 26.748c-1.79 0-4.385-6.247-4.385-8.896 0-2.433 2.28-10.603 2.303-10.685l.019-.067c.186.05.375.076.57.076.58 0 1.2-.223 1.856-.671v.156l.035.106c.024.076 2.462 7.607 2.462 10.658 0 5.41-1.708 9.323-2.86 9.323zm43.576-100.958a.306.306 0 00-.392-.136c-.116.05-.164.156-.182.276-.029.194-.022.397-.033.593a21.772 21.772 0 01-.326 2.565 24.855 24.855 0 01-.918 3.47l-.003.005c-.706 2.078-1.66 4.068-2.75 5.969-1.662 2.904-3.659 5.594-5.866 8.099a65.265 65.265 0 01-11.587 10.383 69.778 69.778 0 01-3.865 2.544 62.559 62.559 0 01-9.082 4.619c-2.759 1.125-5.627 2.028-8.552 2.597l-.01.001c-.419.083-.835.156-1.254.224-1.56.25-3.127.372-4.702.457a1.09 1.09 0 01-.632-.875c-.134-1.224-.283-2.437-.44-3.723-.08-.656-.161-1.318-.24-1.985a236.395 236.395 0 01-.319-3.859 224.82 224.82 0 01-.519-9.535c-.031-1.14-.059-2.279-.08-3.42a184.89 184.89 0 01-.02-2.354c.011-.735.041-1.47.109-2.204.12-1.31.335-2.609.642-3.888l.03-.114a29.608 29.608 0 01.34-1.252l.01-.036a33.254 33.254 0 011.688-4.446l.01-.022c.41-.89.866-1.777 1.359-2.657.07-.122.135-.243.205-.363l.18-.307c.11-.187.22-.372.333-.557l.089-.144a42.823 42.823 0 012.703-3.881 44.575 44.575 0 015.227-5.613 40.792 40.792 0 016.137-4.585c2.198-1.337 4.525-2.446 6.977-3.218a25.53 25.53 0 013.843-.913 23.523 23.523 0 014.03-.255c2.604.039 5.221.406 7.697 1.239 2.271.764 4.406 1.935 6.2 3.539 1.783 1.591 3.323 3.648 4.088 5.939.04.12.077.241.114.361l.048.187.037.141.025.093h.08c.075.017.179.006.256 0h.136a8.391 8.391 0 012.243.307c1.143.323 2.17.957 3.022 1.783a9.8 9.8 0 011.152 1.353l.055.078.094.141c.426.64.839 1.397 1.225 2.298.342.812.621 1.653.858 2.492.736 2.602 1.099 5.297 1.28 7.991.184 2.757.194 5.521.088 8.282-.1 2.56-.308 5.11-.555 7.657a2.514 2.514 0 00-2.092-1.124h-.305a27.174 27.174 0 00-.342-1.831 32.465 32.465 0 00-3.465-8.98 31.696 31.696 0 00-2.648-3.961 29.866 29.866 0 00-1.542-1.81 30.049 30.049 0 00-.39-.41c-.069-.073-.137-.142-.206-.213-.056-.057-.21-.16-.23-.23-.012-.05.063-.221.078-.273l.083-.305c.057-.217.111-.432.164-.648.398-1.655.642-3.351.667-5.057.002-.158.025-.357-.055-.499zm-51.08 2.308c.07-.324.224-.63.394-.928.175-.298.33-.596.442-.904.102-.311.185-.629.278-.942.738-2.51 1.816-4.912 3.132-7.166a33.497 33.497 0 014.69-6.235c.889-.954 1.86-1.826 2.85-2.67 1.015-.813 2.045-1.612 3.147-2.304 1.083-.722 2.229-1.338 3.387-1.93 1.175-.554 2.365-1.078 3.596-1.492 2.454-.846 5.004-1.434 7.594-1.662.648-.044 1.294-.123 1.945-.125l.976-.027.12-.003-.011-.001.011.001h.02l.065.001.256.008.513.014c.338.012.694.014 1.016.035l.945.077c.625.032 1.28.146 1.922.222 2.572.366 5.087 1.083 7.495 2.055 2.41.97 4.691 2.256 6.798 3.78 1.063.751 2.058 1.594 3.03 2.46.943.896 1.872 1.812 2.709 2.81.863.98 1.627 2.038 2.382 3.1.718 1.089 1.413 2.196 2.003 3.36.147.293.303.58.446.873l.407.891c.287.588.5 1.208.751 1.81.226.615.436 1.234.64 1.855.07.32.293.594.526.874.109.141.21.285.274.438.056.157.09.32.138.48.75 2.555.934 5.236.998 7.89l.22 11.513c.044 2.48.093 4.962.15 7.442l-2.623-.747c.763-6.87.977-12.868.635-17.894-.478-7.02-2.059-12.146-4.697-15.237-1.72-2.016-3.858-3.175-6.365-3.457-.528-1.255-1.595-3.289-3.556-5.301-2.79-2.866-8.019-6.284-17.084-6.284-8.21 0-17.093 4.353-24.37 11.944-3.596 3.75-6.455 7.98-8.403 12.299l.209-.923zm67.932 26.103c.06-2.649.115-5.296.162-7.945l.221-11.514c.046-2.86-.422-5.688-.947-8.493-.066-.352-.149-.699-.1-1.085.046-.384.083-.773-.033-1.115a55.737 55.737 0 00-.68-2.06c-.268-.672-.499-1.36-.806-2.014l-.439-.994c-.154-.326-.321-.647-.481-.972-.637-1.298-1.389-2.536-2.171-3.753-.814-1.194-1.67-2.363-2.626-3.448-.928-1.109-1.957-2.127-3.004-3.118-1.077-.96-2.18-1.895-3.362-2.725a35.56 35.56 0 00-7.56-4.156c-2.674-1.066-5.468-1.844-8.32-2.235-.717-.084-1.413-.2-2.157-.239l-1.1-.08c-.361-.021-.69-.02-1.035-.03l-.514-.013-.257-.006-.172-.003-.135.003-1.077.026c-.718 0-1.434.08-2.15.127-2.867.242-5.695.877-8.42 1.803-1.367.456-2.69 1.029-3.996 1.64-1.287.646-2.56 1.327-3.764 2.121-1.223.764-2.374 1.639-3.498 2.543-1.1.935-2.173 1.903-3.159 2.96-.246.263-.5.52-.74.79l-.708.822c-.482.537-.903 1.128-1.354 1.692a35.223 35.223 0 00-2.369 3.631c-1.427 2.514-2.587 5.189-3.373 7.974-.093.35-.199.696-.284 1.048-.085.351-.05.733-.04 1.105.02.373.006.736-.057 1.088l-.144 1.064c-.114.706-.174 1.417-.263 2.124-.079.713-.122 1.445-.178 2.165l-.017 1.034-.009.517-.003.29.004.258.043 2.067.059 2.915c-.032.503-.047 1-.047 1.496 0 3.503.107 7.027.29 10.504l.046 2.19a4.228 4.228 0 00-2.643 3.918v9.815c0 1.876 1.251 3.544 3.042 4.055l1.462.416c1.487 11.462 3.274 20.297 3.82 22.884-.886.799-1.677 1.84-1.677 3.004 0 1.39.782 2.213 1.49 2.716-.939 1.71-.836 3.899.31 5.503v.225c-.434 1.569-2.33 8.56-2.33 11.116 0 1.577.72 4.247 1.75 6.493 1.476 3.224 3.183 4.858 5.072 4.858 5.235 0 5.296-11.66 5.296-11.778 0-3.139-2-9.596-2.496-11.153v-.624c1.469-2.003.642-4.12.226-5.188-.052-.137-.119-.303-.166-.44l.105-.139c.579-.775 2.038-2.728-.035-5.368.295-1.449 1.034-4.625 2.337-7.606 2.206 2.5 5.216 5.366 8.223 7.793 4.98 4.025 8.874 6.065 11.571 6.065 2.063 0 6.005-1.268 13.072-7.31 4.552-3.893 8.555-8.27 9.733-10.646.885-1.783 1.668-4.508 2.236-6.829l.021-.008c.187.046.382.069.58.069h1.064a2.535 2.535 0 002.52-2.42l5.73-1.634c1.793-.512 3.044-2.18 3.044-4.056v-9.815a4.234 4.234 0 00-2.633-3.915z"/></g></g></svg>